<mxfile host="app.diagrams.net" modified="2021-02-12T06:25:59.705Z" agent="5.0 (Windows)" etag="kVvm69glQxa_9BgUHw9H" version="14.3.0" type="github">
  <diagram id="c7fjYp0Tahoj1WGIqrOk" name="Page-1">
    <mxGraphModel dx="1845" dy="1743" grid="1" gridSize="10" guides="1" tooltips="1" connect="1" arrows="1" fold="1" page="1" pageScale="1" pageWidth="850" pageHeight="1100" math="0" shadow="0">
      <root>
        <mxCell id="0" />
        <mxCell id="1" parent="0" />
        <mxCell id="8bCLtA65vS8jzmT4QicE-42" style="edgeStyle=orthogonalEdgeStyle;rounded=0;orthogonalLoop=1;jettySize=auto;html=1;" parent="1" source="UxZr2XqgRcE-VCvsG_dp-8" target="8bCLtA65vS8jzmT4QicE-17" edge="1">
          <mxGeometry relative="1" as="geometry" />
        </mxCell>
        <mxCell id="8bCLtA65vS8jzmT4QicE-1" value="PTH_ISR" style="rounded=1;whiteSpace=wrap;html=1;" parent="1" vertex="1">
          <mxGeometry x="110" y="-90" width="120" height="30" as="geometry" />
        </mxCell>
        <mxCell id="8bCLtA65vS8jzmT4QicE-58" value="" style="edgeStyle=orthogonalEdgeStyle;rounded=0;orthogonalLoop=1;jettySize=auto;html=1;" parent="1" source="8bCLtA65vS8jzmT4QicE-3" edge="1">
          <mxGeometry relative="1" as="geometry">
            <mxPoint x="61.99999999999977" y="774.0833333333335" as="targetPoint" />
          </mxGeometry>
        </mxCell>
        <mxCell id="s9H4iR4M-_ucvPNq_mCL-15" value="" style="edgeStyle=orthogonalEdgeStyle;rounded=0;orthogonalLoop=1;jettySize=auto;html=1;" edge="1" parent="1" source="8bCLtA65vS8jzmT4QicE-3" target="s9H4iR4M-_ucvPNq_mCL-7">
          <mxGeometry relative="1" as="geometry" />
        </mxCell>
        <mxCell id="8bCLtA65vS8jzmT4QicE-3" value="PIFH.1 = 1?" style="shape=hexagon;perimeter=hexagonPerimeter2;whiteSpace=wrap;html=1;fixedSize=1;" parent="1" vertex="1">
          <mxGeometry x="-88" y="754" width="120" height="40" as="geometry" />
        </mxCell>
        <mxCell id="8bCLtA65vS8jzmT4QicE-62" value="" style="edgeStyle=orthogonalEdgeStyle;rounded=0;orthogonalLoop=1;jettySize=auto;html=1;" parent="1" source="8bCLtA65vS8jzmT4QicE-5" target="8bCLtA65vS8jzmT4QicE-54" edge="1">
          <mxGeometry relative="1" as="geometry" />
        </mxCell>
        <mxCell id="8bCLtA65vS8jzmT4QicE-94" value="" style="edgeStyle=orthogonalEdgeStyle;rounded=0;orthogonalLoop=1;jettySize=auto;html=1;" parent="1" source="s9H4iR4M-_ucvPNq_mCL-3" target="8bCLtA65vS8jzmT4QicE-86" edge="1">
          <mxGeometry relative="1" as="geometry" />
        </mxCell>
        <mxCell id="8bCLtA65vS8jzmT4QicE-6" value="PIFH.3 = 1?" style="shape=hexagon;perimeter=hexagonPerimeter2;whiteSpace=wrap;html=1;fixedSize=1;" parent="1" vertex="1">
          <mxGeometry x="-88" y="620" width="120" height="40" as="geometry" />
        </mxCell>
        <mxCell id="Di6Owvq7miezw51LFoUo-13" value="" style="edgeStyle=orthogonalEdgeStyle;rounded=0;orthogonalLoop=1;jettySize=auto;html=1;" parent="1" source="8bCLtA65vS8jzmT4QicE-7" target="Di6Owvq7miezw51LFoUo-11" edge="1">
          <mxGeometry relative="1" as="geometry" />
        </mxCell>
        <mxCell id="8bCLtA65vS8jzmT4QicE-7" value="Cont_Reb = 0" style="shape=hexagon;perimeter=hexagonPerimeter2;whiteSpace=wrap;html=1;fixedSize=1;" parent="1" vertex="1">
          <mxGeometry x="110" y="126" width="120" height="40" as="geometry" />
        </mxCell>
        <mxCell id="8bCLtA65vS8jzmT4QicE-8" value="Retorno" style="rounded=1;whiteSpace=wrap;html=1;" parent="1" vertex="1">
          <mxGeometry x="302" y="265" width="120" height="30" as="geometry" />
        </mxCell>
        <mxCell id="8bCLtA65vS8jzmT4QicE-10" value="No" style="text;html=1;align=center;verticalAlign=middle;resizable=0;points=[];autosize=1;" parent="1" vertex="1">
          <mxGeometry x="90" y="118" width="30" height="20" as="geometry" />
        </mxCell>
        <mxCell id="8bCLtA65vS8jzmT4QicE-12" value="Sí" style="text;html=1;align=center;verticalAlign=middle;resizable=0;points=[];autosize=1;" parent="1" vertex="1">
          <mxGeometry x="165" y="170" width="30" height="20" as="geometry" />
        </mxCell>
        <mxCell id="8bCLtA65vS8jzmT4QicE-16" value="&lt;h1&gt;Estructuras de datos&lt;br&gt;&lt;/h1&gt;&lt;p&gt;Tecla: Byte, banderas&lt;/p&gt;&lt;p&gt;Tecla.7: 1: segunda vez&lt;/p&gt;&lt;p&gt;Tecla.0: PTH0&lt;/p&gt;&lt;p&gt;Tecla.1: PTH1&lt;/p&gt;&lt;p&gt;Tecla.2: PTH2&lt;/p&gt;&lt;p&gt;Tecla.3: PTH3&lt;/p&gt;&lt;p&gt;RECORDAR QUE Tecla tiene que estar en $FF&lt;/p&gt;&lt;p&gt;RECORDAR PONER Tecla en $FF&lt;/p&gt;&lt;p&gt;Apenas entra a modo config.&lt;/p&gt;&lt;p&gt;Necesito RTI para evitar Rebortes de PTH, entonces si PTH esta en config necesito RTI en config tambn&lt;br&gt;&lt;/p&gt;&lt;p&gt;Que pasa si pongo 1 y la int esta inactiva&lt;br&gt;&lt;/p&gt;" style="text;html=1;strokeColor=none;fillColor=none;spacing=5;spacingTop=-20;whiteSpace=wrap;overflow=hidden;rounded=0;" parent="1" vertex="1">
          <mxGeometry x="770" y="-100" width="420" height="325" as="geometry" />
        </mxCell>
        <mxCell id="8bCLtA65vS8jzmT4QicE-24" value="" style="edgeStyle=orthogonalEdgeStyle;rounded=0;orthogonalLoop=1;jettySize=auto;html=1;" parent="1" source="8bCLtA65vS8jzmT4QicE-17" target="8bCLtA65vS8jzmT4QicE-19" edge="1">
          <mxGeometry relative="1" as="geometry" />
        </mxCell>
        <mxCell id="8bCLtA65vS8jzmT4QicE-49" style="edgeStyle=orthogonalEdgeStyle;rounded=0;orthogonalLoop=1;jettySize=auto;html=1;exitX=0.5;exitY=1;exitDx=0;exitDy=0;entryX=0.5;entryY=0;entryDx=0;entryDy=0;" parent="1" source="8bCLtA65vS8jzmT4QicE-17" target="8bCLtA65vS8jzmT4QicE-26" edge="1">
          <mxGeometry relative="1" as="geometry" />
        </mxCell>
        <mxCell id="8bCLtA65vS8jzmT4QicE-17" value="Tecla.7 = 0?" style="shape=hexagon;perimeter=hexagonPerimeter2;whiteSpace=wrap;html=1;fixedSize=1;" parent="1" vertex="1">
          <mxGeometry x="110" y="210" width="120" height="40" as="geometry" />
        </mxCell>
        <mxCell id="8bCLtA65vS8jzmT4QicE-18" value="Sí" style="text;html=1;align=center;verticalAlign=middle;resizable=0;points=[];autosize=1;" parent="1" vertex="1">
          <mxGeometry x="175" y="250" width="30" height="20" as="geometry" />
        </mxCell>
        <mxCell id="8bCLtA65vS8jzmT4QicE-21" style="edgeStyle=orthogonalEdgeStyle;rounded=0;orthogonalLoop=1;jettySize=auto;html=1;entryX=0.5;entryY=0;entryDx=0;entryDy=0;" parent="1" source="8bCLtA65vS8jzmT4QicE-19" target="8bCLtA65vS8jzmT4QicE-22" edge="1">
          <mxGeometry relative="1" as="geometry">
            <mxPoint x="20" y="520" as="targetPoint" />
          </mxGeometry>
        </mxCell>
        <mxCell id="8bCLtA65vS8jzmT4QicE-19" value="&lt;div&gt;Tecla &amp;lt;- PIFH&lt;/div&gt;&lt;div&gt;R1 &amp;lt;- $0F&lt;/div&gt;&lt;div&gt;R1 &amp;lt;- R1 &amp;amp;&amp;amp; PIFH&lt;/div&gt;&lt;div&gt;PIFH &amp;lt;- R1&lt;br&gt;&lt;/div&gt;&lt;div&gt;Cont_Reb &amp;lt;- 10&lt;/div&gt;&lt;div&gt;Tecla.7 &amp;lt;- 1&lt;br&gt;&lt;/div&gt;" style="rounded=0;whiteSpace=wrap;html=1;" parent="1" vertex="1">
          <mxGeometry x="-40" y="172.5" width="120" height="115" as="geometry" />
        </mxCell>
        <mxCell id="8bCLtA65vS8jzmT4QicE-22" value="R" style="ellipse;whiteSpace=wrap;html=1;aspect=fixed;" parent="1" vertex="1">
          <mxGeometry y="415" width="40" height="40" as="geometry" />
        </mxCell>
        <mxCell id="8bCLtA65vS8jzmT4QicE-23" style="edgeStyle=orthogonalEdgeStyle;rounded=0;orthogonalLoop=1;jettySize=auto;html=1;entryX=0;entryY=0.5;entryDx=0;entryDy=0;" parent="1" source="Di6Owvq7miezw51LFoUo-11" target="8bCLtA65vS8jzmT4QicE-22" edge="1">
          <mxGeometry relative="1" as="geometry">
            <mxPoint x="110" y="150" as="sourcePoint" />
            <mxPoint x="110" y="817" as="targetPoint" />
            <Array as="points">
              <mxPoint x="-50" y="150" />
              <mxPoint x="-50" y="435" />
            </Array>
          </mxGeometry>
        </mxCell>
        <mxCell id="8bCLtA65vS8jzmT4QicE-47" value="" style="edgeStyle=orthogonalEdgeStyle;rounded=0;orthogonalLoop=1;jettySize=auto;html=1;" parent="1" source="8bCLtA65vS8jzmT4QicE-26" target="8bCLtA65vS8jzmT4QicE-44" edge="1">
          <mxGeometry relative="1" as="geometry" />
        </mxCell>
        <mxCell id="8bCLtA65vS8jzmT4QicE-26" value="&lt;div&gt;R2 &amp;lt;- PIFH&lt;br&gt;&lt;/div&gt;" style="rounded=0;whiteSpace=wrap;html=1;" parent="1" vertex="1">
          <mxGeometry x="113" y="270" width="120" height="60" as="geometry" />
        </mxCell>
        <mxCell id="8bCLtA65vS8jzmT4QicE-48" style="edgeStyle=orthogonalEdgeStyle;rounded=0;orthogonalLoop=1;jettySize=auto;html=1;exitX=0.5;exitY=1;exitDx=0;exitDy=0;entryX=0.5;entryY=0;entryDx=0;entryDy=0;" parent="1" source="8bCLtA65vS8jzmT4QicE-27" target="8bCLtA65vS8jzmT4QicE-31" edge="1">
          <mxGeometry relative="1" as="geometry" />
        </mxCell>
        <mxCell id="8bCLtA65vS8jzmT4QicE-27" value="R2 = Tecla" style="shape=hexagon;perimeter=hexagonPerimeter2;whiteSpace=wrap;html=1;fixedSize=1;" parent="1" vertex="1">
          <mxGeometry x="110" y="350" width="120" height="40" as="geometry" />
        </mxCell>
        <mxCell id="8bCLtA65vS8jzmT4QicE-33" style="edgeStyle=orthogonalEdgeStyle;rounded=0;orthogonalLoop=1;jettySize=auto;html=1;entryX=1;entryY=0.5;entryDx=0;entryDy=0;" parent="1" source="8bCLtA65vS8jzmT4QicE-31" target="8bCLtA65vS8jzmT4QicE-22" edge="1">
          <mxGeometry relative="1" as="geometry" />
        </mxCell>
        <mxCell id="8bCLtA65vS8jzmT4QicE-31" value="&lt;div&gt;Tecla &amp;lt;- $FF&lt;/div&gt;" style="rounded=0;whiteSpace=wrap;html=1;" parent="1" vertex="1">
          <mxGeometry x="110" y="420" width="120" height="30" as="geometry" />
        </mxCell>
        <mxCell id="8bCLtA65vS8jzmT4QicE-44" value="No" style="text;html=1;align=center;verticalAlign=middle;resizable=0;points=[];autosize=1;" parent="1" vertex="1">
          <mxGeometry x="175" y="390" width="30" height="20" as="geometry" />
        </mxCell>
        <mxCell id="s9H4iR4M-_ucvPNq_mCL-18" value="" style="edgeStyle=orthogonalEdgeStyle;rounded=0;orthogonalLoop=1;jettySize=auto;html=1;" edge="1" parent="1" source="8bCLtA65vS8jzmT4QicE-53" target="8bCLtA65vS8jzmT4QicE-97">
          <mxGeometry relative="1" as="geometry" />
        </mxCell>
        <mxCell id="8bCLtA65vS8jzmT4QicE-53" value="&lt;div&gt;PIFH.1 &amp;lt;- 1&lt;/div&gt;&lt;div&gt;AcmPQ &amp;lt;- 0&lt;/div&gt;" style="rounded=0;whiteSpace=wrap;html=1;gradientColor=#ffffff;" parent="1" vertex="1">
          <mxGeometry x="62" y="750" width="100" height="50" as="geometry" />
        </mxCell>
        <mxCell id="8bCLtA65vS8jzmT4QicE-56" value="" style="edgeStyle=orthogonalEdgeStyle;rounded=0;orthogonalLoop=1;jettySize=auto;html=1;" parent="1" source="8bCLtA65vS8jzmT4QicE-54" target="8bCLtA65vS8jzmT4QicE-3" edge="1">
          <mxGeometry relative="1" as="geometry" />
        </mxCell>
        <mxCell id="8bCLtA65vS8jzmT4QicE-54" value="Banderas.3 = 1" style="shape=hexagon;perimeter=hexagonPerimeter2;whiteSpace=wrap;html=1;fixedSize=1;" parent="1" vertex="1">
          <mxGeometry x="-88" y="686" width="120" height="40" as="geometry" />
        </mxCell>
        <mxCell id="8bCLtA65vS8jzmT4QicE-63" value="No" style="text;html=1;align=center;verticalAlign=middle;resizable=0;points=[];autosize=1;" parent="1" vertex="1">
          <mxGeometry x="-23" y="570" width="30" height="20" as="geometry" />
        </mxCell>
        <mxCell id="8bCLtA65vS8jzmT4QicE-64" value="No" style="text;html=1;align=center;verticalAlign=middle;resizable=0;points=[];autosize=1;" parent="1" vertex="1">
          <mxGeometry x="-33" y="660" width="30" height="20" as="geometry" />
        </mxCell>
        <mxCell id="8bCLtA65vS8jzmT4QicE-65" value="Si" style="text;html=1;align=center;verticalAlign=middle;resizable=0;points=[];autosize=1;" parent="1" vertex="1">
          <mxGeometry x="-118" y="685" width="30" height="20" as="geometry" />
        </mxCell>
        <mxCell id="8bCLtA65vS8jzmT4QicE-66" value="No" style="text;html=1;align=center;verticalAlign=middle;resizable=0;points=[];autosize=1;" parent="1" vertex="1">
          <mxGeometry x="-116" y="746.5" width="30" height="20" as="geometry" />
        </mxCell>
        <mxCell id="8bCLtA65vS8jzmT4QicE-81" value="" style="edgeStyle=orthogonalEdgeStyle;rounded=0;orthogonalLoop=1;jettySize=auto;html=1;" parent="1" source="8bCLtA65vS8jzmT4QicE-74" target="8bCLtA65vS8jzmT4QicE-63" edge="1">
          <mxGeometry relative="1" as="geometry" />
        </mxCell>
        <mxCell id="8bCLtA65vS8jzmT4QicE-90" value="" style="edgeStyle=orthogonalEdgeStyle;rounded=0;orthogonalLoop=1;jettySize=auto;html=1;" parent="1" source="s9H4iR4M-_ucvPNq_mCL-1" target="8bCLtA65vS8jzmT4QicE-83" edge="1">
          <mxGeometry relative="1" as="geometry" />
        </mxCell>
        <mxCell id="8bCLtA65vS8jzmT4QicE-5" value="PIFH.2 = 1?" style="shape=hexagon;perimeter=hexagonPerimeter2;whiteSpace=wrap;html=1;fixedSize=1;" parent="1" vertex="1">
          <mxGeometry x="-88" y="530" width="120" height="40" as="geometry" />
        </mxCell>
        <mxCell id="8bCLtA65vS8jzmT4QicE-92" value="" style="edgeStyle=orthogonalEdgeStyle;rounded=0;orthogonalLoop=1;jettySize=auto;html=1;" parent="1" source="8bCLtA65vS8jzmT4QicE-83" target="8bCLtA65vS8jzmT4QicE-85" edge="1">
          <mxGeometry relative="1" as="geometry" />
        </mxCell>
        <mxCell id="8bCLtA65vS8jzmT4QicE-93" style="edgeStyle=orthogonalEdgeStyle;rounded=0;orthogonalLoop=1;jettySize=auto;html=1;entryX=0;entryY=0.5;entryDx=0;entryDy=0;" parent="1" source="8bCLtA65vS8jzmT4QicE-83" target="8bCLtA65vS8jzmT4QicE-60" edge="1">
          <mxGeometry relative="1" as="geometry">
            <Array as="points">
              <mxPoint x="254" y="600" />
            </Array>
          </mxGeometry>
        </mxCell>
        <mxCell id="8bCLtA65vS8jzmT4QicE-83" value="BRILLO &amp;gt; 5" style="shape=hexagon;perimeter=hexagonPerimeter2;whiteSpace=wrap;html=1;fixedSize=1;" parent="1" vertex="1">
          <mxGeometry x="200" y="530" width="120" height="40" as="geometry" />
        </mxCell>
        <mxCell id="s9H4iR4M-_ucvPNq_mCL-17" style="edgeStyle=orthogonalEdgeStyle;rounded=0;orthogonalLoop=1;jettySize=auto;html=1;entryX=0.425;entryY=-0.05;entryDx=0;entryDy=0;entryPerimeter=0;" edge="1" parent="1" source="8bCLtA65vS8jzmT4QicE-85" target="8bCLtA65vS8jzmT4QicE-106">
          <mxGeometry relative="1" as="geometry">
            <mxPoint x="432" y="625.0000000000002" as="targetPoint" />
          </mxGeometry>
        </mxCell>
        <mxCell id="8bCLtA65vS8jzmT4QicE-85" value="&lt;div&gt;R1 &amp;lt;- R1 - 5&lt;/div&gt;&lt;div&gt;BRILLO &amp;lt;- R1&lt;br&gt;&lt;/div&gt;" style="rounded=0;whiteSpace=wrap;html=1;gradientColor=#ffffff;" parent="1" vertex="1">
          <mxGeometry x="382" y="527.25" width="100" height="45.5" as="geometry" />
        </mxCell>
        <mxCell id="8bCLtA65vS8jzmT4QicE-95" value="" style="edgeStyle=orthogonalEdgeStyle;rounded=0;orthogonalLoop=1;jettySize=auto;html=1;" parent="1" source="8bCLtA65vS8jzmT4QicE-86" target="8bCLtA65vS8jzmT4QicE-88" edge="1">
          <mxGeometry relative="1" as="geometry" />
        </mxCell>
        <mxCell id="8bCLtA65vS8jzmT4QicE-107" style="edgeStyle=orthogonalEdgeStyle;rounded=0;orthogonalLoop=1;jettySize=auto;html=1;entryX=0;entryY=0.5;entryDx=0;entryDy=0;" parent="1" source="8bCLtA65vS8jzmT4QicE-86" target="8bCLtA65vS8jzmT4QicE-106" edge="1">
          <mxGeometry relative="1" as="geometry" />
        </mxCell>
        <mxCell id="8bCLtA65vS8jzmT4QicE-86" value="BRILLO &amp;lt; 95" style="shape=hexagon;perimeter=hexagonPerimeter2;whiteSpace=wrap;html=1;fixedSize=1;" parent="1" vertex="1">
          <mxGeometry x="192" y="619.25" width="120" height="40" as="geometry" />
        </mxCell>
        <mxCell id="UxZr2XqgRcE-VCvsG_dp-4" style="edgeStyle=orthogonalEdgeStyle;rounded=0;orthogonalLoop=1;jettySize=auto;html=1;" parent="1" source="8bCLtA65vS8jzmT4QicE-88" target="8bCLtA65vS8jzmT4QicE-97" edge="1">
          <mxGeometry relative="1" as="geometry" />
        </mxCell>
        <mxCell id="8bCLtA65vS8jzmT4QicE-88" value="&lt;div&gt;R1 &amp;lt;- R1 + 5&lt;/div&gt;&lt;div&gt;BRILLO &amp;lt;- R1&lt;br&gt;&lt;/div&gt;" style="rounded=0;whiteSpace=wrap;html=1;gradientColor=#ffffff;" parent="1" vertex="1">
          <mxGeometry x="202" y="686" width="100" height="44" as="geometry" />
        </mxCell>
        <mxCell id="8bCLtA65vS8jzmT4QicE-97" value="R" style="ellipse;whiteSpace=wrap;html=1;aspect=fixed;" parent="1" vertex="1">
          <mxGeometry x="232" y="755" width="40" height="40" as="geometry" />
        </mxCell>
        <mxCell id="s9H4iR4M-_ucvPNq_mCL-19" style="edgeStyle=orthogonalEdgeStyle;rounded=0;orthogonalLoop=1;jettySize=auto;html=1;entryX=1;entryY=0.5;entryDx=0;entryDy=0;" edge="1" parent="1" source="8bCLtA65vS8jzmT4QicE-106" target="8bCLtA65vS8jzmT4QicE-97">
          <mxGeometry relative="1" as="geometry">
            <Array as="points">
              <mxPoint x="434" y="775" />
            </Array>
          </mxGeometry>
        </mxCell>
        <mxCell id="8bCLtA65vS8jzmT4QicE-106" value="" style="ellipse;whiteSpace=wrap;html=1;aspect=fixed;" parent="1" vertex="1">
          <mxGeometry x="414" y="653" width="40" height="40" as="geometry" />
        </mxCell>
        <mxCell id="8bCLtA65vS8jzmT4QicE-108" value="No" style="text;html=1;align=center;verticalAlign=middle;resizable=0;points=[];autosize=1;" parent="1" vertex="1">
          <mxGeometry x="362" y="634" width="30" height="20" as="geometry" />
        </mxCell>
        <mxCell id="8bCLtA65vS8jzmT4QicE-109" value="Sí" style="text;html=1;align=center;verticalAlign=middle;resizable=0;points=[];autosize=1;" parent="1" vertex="1">
          <mxGeometry x="312" y="527.25" width="30" height="20" as="geometry" />
        </mxCell>
        <mxCell id="Di6Owvq7miezw51LFoUo-9" value="" style="edgeStyle=orthogonalEdgeStyle;rounded=0;orthogonalLoop=1;jettySize=auto;html=1;" parent="1" source="Di6Owvq7miezw51LFoUo-1" target="Di6Owvq7miezw51LFoUo-2" edge="1">
          <mxGeometry relative="1" as="geometry" />
        </mxCell>
        <mxCell id="Di6Owvq7miezw51LFoUo-14" value="" style="edgeStyle=orthogonalEdgeStyle;rounded=0;orthogonalLoop=1;jettySize=auto;html=1;exitX=0.5;exitY=1;exitDx=0;exitDy=0;" parent="1" source="Di6Owvq7miezw51LFoUo-2" target="Di6Owvq7miezw51LFoUo-11" edge="1">
          <mxGeometry relative="1" as="geometry">
            <mxPoint x="30" y="80" as="sourcePoint" />
          </mxGeometry>
        </mxCell>
        <mxCell id="Di6Owvq7miezw51LFoUo-2" value="&lt;div&gt;PIFH.0 &amp;lt;- 1&lt;/div&gt;&lt;div&gt;CUENTA &amp;lt;- 0&lt;/div&gt;&lt;div&gt;PORTE.2 &amp;lt;- 0&lt;br&gt;&lt;/div&gt;&lt;div&gt;CRGINT &amp;lt;- $80&lt;br&gt;&lt;/div&gt;" style="rounded=0;whiteSpace=wrap;html=1;" parent="1" vertex="1">
          <mxGeometry x="-30" y="8" width="120" height="65.5" as="geometry" />
        </mxCell>
        <mxCell id="Di6Owvq7miezw51LFoUo-10" value="&lt;div&gt;Sí&lt;/div&gt;&lt;div&gt;&lt;br&gt;&lt;/div&gt;" style="text;html=1;align=center;verticalAlign=middle;resizable=0;points=[];autosize=1;" parent="1" vertex="1">
          <mxGeometry x="90" y="18" width="30" height="30" as="geometry" />
        </mxCell>
        <mxCell id="Di6Owvq7miezw51LFoUo-11" value="" style="ellipse;whiteSpace=wrap;html=1;aspect=fixed;" parent="1" vertex="1">
          <mxGeometry x="10" y="126" width="40" height="40" as="geometry" />
        </mxCell>
        <mxCell id="UxZr2XqgRcE-VCvsG_dp-7" value="Sí" style="text;html=1;align=center;verticalAlign=middle;resizable=0;points=[];autosize=1;" parent="1" vertex="1">
          <mxGeometry x="165" y="-2" width="30" height="20" as="geometry" />
        </mxCell>
        <mxCell id="UxZr2XqgRcE-VCvsG_dp-8" value="" style="ellipse;whiteSpace=wrap;html=1;aspect=fixed;" parent="1" vertex="1">
          <mxGeometry x="150" y="78" width="40" height="40" as="geometry" />
        </mxCell>
        <mxCell id="UxZr2XqgRcE-VCvsG_dp-9" style="edgeStyle=orthogonalEdgeStyle;rounded=0;orthogonalLoop=1;jettySize=auto;html=1;" parent="1" source="8bCLtA65vS8jzmT4QicE-1" target="UxZr2XqgRcE-VCvsG_dp-8" edge="1">
          <mxGeometry relative="1" as="geometry">
            <mxPoint x="170" y="-110" as="sourcePoint" />
            <mxPoint x="170" y="210" as="targetPoint" />
          </mxGeometry>
        </mxCell>
        <mxCell id="UxZr2XqgRcE-VCvsG_dp-11" style="edgeStyle=orthogonalEdgeStyle;rounded=0;orthogonalLoop=1;jettySize=auto;html=1;entryX=1;entryY=0.5;entryDx=0;entryDy=0;" parent="1" source="UxZr2XqgRcE-VCvsG_dp-6" target="UxZr2XqgRcE-VCvsG_dp-8" edge="1">
          <mxGeometry relative="1" as="geometry">
            <Array as="points">
              <mxPoint x="250" y="-22" />
              <mxPoint x="250" y="98" />
            </Array>
          </mxGeometry>
        </mxCell>
        <mxCell id="UxZr2XqgRcE-VCvsG_dp-6" value="Banderas.3 = 0" style="shape=hexagon;perimeter=hexagonPerimeter2;whiteSpace=wrap;html=1;fixedSize=1;" parent="1" vertex="1">
          <mxGeometry x="110" y="-42" width="120" height="40" as="geometry" />
        </mxCell>
        <mxCell id="Di6Owvq7miezw51LFoUo-1" value="PIFH.0 = 1?" style="shape=hexagon;perimeter=hexagonPerimeter2;whiteSpace=wrap;html=1;fixedSize=1;" parent="1" vertex="1">
          <mxGeometry x="110" y="20.75" width="120" height="40" as="geometry" />
        </mxCell>
        <mxCell id="s9H4iR4M-_ucvPNq_mCL-1" value="&lt;div&gt;PIFH.2 &amp;lt;- 1&lt;br&gt;&lt;/div&gt;" style="rounded=0;whiteSpace=wrap;html=1;gradientColor=#ffffff;" vertex="1" parent="1">
          <mxGeometry x="67" y="536.25" width="100" height="27.5" as="geometry" />
        </mxCell>
        <mxCell id="s9H4iR4M-_ucvPNq_mCL-2" value="" style="edgeStyle=orthogonalEdgeStyle;rounded=0;orthogonalLoop=1;jettySize=auto;html=1;" edge="1" parent="1" source="8bCLtA65vS8jzmT4QicE-5" target="s9H4iR4M-_ucvPNq_mCL-1">
          <mxGeometry relative="1" as="geometry">
            <mxPoint x="31.965517241379075" y="550.0344827586209" as="sourcePoint" />
            <mxPoint x="232.01724137931" y="555.4827586206898" as="targetPoint" />
          </mxGeometry>
        </mxCell>
        <mxCell id="s9H4iR4M-_ucvPNq_mCL-3" value="&lt;div&gt;PIFH.3 &amp;lt;- 1&lt;br&gt;&lt;/div&gt;" style="rounded=0;whiteSpace=wrap;html=1;gradientColor=#ffffff;" vertex="1" parent="1">
          <mxGeometry x="67" y="625.5" width="100" height="27.5" as="geometry" />
        </mxCell>
        <mxCell id="s9H4iR4M-_ucvPNq_mCL-4" value="" style="edgeStyle=orthogonalEdgeStyle;rounded=0;orthogonalLoop=1;jettySize=auto;html=1;" edge="1" parent="1" source="8bCLtA65vS8jzmT4QicE-6" target="s9H4iR4M-_ucvPNq_mCL-3">
          <mxGeometry relative="1" as="geometry">
            <mxPoint x="32" y="640" as="sourcePoint" />
            <mxPoint x="247" y="654" as="targetPoint" />
          </mxGeometry>
        </mxCell>
        <mxCell id="s9H4iR4M-_ucvPNq_mCL-9" value="" style="edgeStyle=orthogonalEdgeStyle;rounded=0;orthogonalLoop=1;jettySize=auto;html=1;" edge="1" parent="1" source="s9H4iR4M-_ucvPNq_mCL-6" target="8bCLtA65vS8jzmT4QicE-8">
          <mxGeometry relative="1" as="geometry" />
        </mxCell>
        <mxCell id="s9H4iR4M-_ucvPNq_mCL-6" value="R" style="ellipse;whiteSpace=wrap;html=1;aspect=fixed;" vertex="1" parent="1">
          <mxGeometry x="342" y="190" width="40" height="40" as="geometry" />
        </mxCell>
        <mxCell id="s9H4iR4M-_ucvPNq_mCL-7" value="R" style="ellipse;whiteSpace=wrap;html=1;aspect=fixed;" vertex="1" parent="1">
          <mxGeometry x="-150" y="754" width="40" height="40" as="geometry" />
        </mxCell>
        <mxCell id="s9H4iR4M-_ucvPNq_mCL-8" style="edgeStyle=orthogonalEdgeStyle;rounded=0;orthogonalLoop=1;jettySize=auto;html=1;" edge="1" parent="1" source="8bCLtA65vS8jzmT4QicE-54" target="s9H4iR4M-_ucvPNq_mCL-7">
          <mxGeometry relative="1" as="geometry">
            <mxPoint x="-88" y="706" as="sourcePoint" />
            <mxPoint x="-305" y="865" as="targetPoint" />
          </mxGeometry>
        </mxCell>
        <mxCell id="s9H4iR4M-_ucvPNq_mCL-10" value="C" style="ellipse;whiteSpace=wrap;html=1;aspect=fixed;" vertex="1" parent="1">
          <mxGeometry x="250" y="350" width="40" height="40" as="geometry" />
        </mxCell>
        <mxCell id="s9H4iR4M-_ucvPNq_mCL-11" value="" style="edgeStyle=orthogonalEdgeStyle;rounded=0;orthogonalLoop=1;jettySize=auto;html=1;" edge="1" parent="1" target="s9H4iR4M-_ucvPNq_mCL-10">
          <mxGeometry relative="1" as="geometry">
            <mxPoint x="230" y="370" as="sourcePoint" />
            <mxPoint x="450" y="380" as="targetPoint" />
          </mxGeometry>
        </mxCell>
        <mxCell id="s9H4iR4M-_ucvPNq_mCL-21" value="" style="edgeStyle=orthogonalEdgeStyle;rounded=0;orthogonalLoop=1;jettySize=auto;html=1;" edge="1" parent="1" source="s9H4iR4M-_ucvPNq_mCL-12" target="8bCLtA65vS8jzmT4QicE-74">
          <mxGeometry relative="1" as="geometry" />
        </mxCell>
        <mxCell id="s9H4iR4M-_ucvPNq_mCL-12" value="C" style="ellipse;whiteSpace=wrap;html=1;aspect=fixed;" vertex="1" parent="1">
          <mxGeometry x="-142" y="472.5" width="40" height="40" as="geometry" />
        </mxCell>
        <mxCell id="8bCLtA65vS8jzmT4QicE-74" value="&lt;div&gt;Tecla.7 &amp;lt;- 1&lt;/div&gt;&lt;div&gt;R1 &amp;lt;- BRILLO&lt;/div&gt;" style="rounded=0;whiteSpace=wrap;html=1;gradientColor=#ffffff;" parent="1" vertex="1">
          <mxGeometry x="-78" y="470" width="100" height="45" as="geometry" />
        </mxCell>
        <mxCell id="8bCLtA65vS8jzmT4QicE-60" value="" style="ellipse;whiteSpace=wrap;html=1;aspect=fixed;" parent="1" vertex="1">
          <mxGeometry x="412" y="580" width="40" height="40" as="geometry" />
        </mxCell>
        <mxCell id="s9H4iR4M-_ucvPNq_mCL-24" value="&lt;h1&gt;Heading&lt;/h1&gt;&lt;div&gt;BCRL en &lt;br&gt;&lt;/div&gt;&lt;div&gt;&lt;br&gt;&lt;/div&gt;y que tevla sea 0 en segundo ingreso" style="text;html=1;strokeColor=none;fillColor=none;spacing=5;spacingTop=-20;whiteSpace=wrap;overflow=hidden;rounded=0;" vertex="1" parent="1">
          <mxGeometry x="750" y="390" width="190" height="120" as="geometry" />
        </mxCell>
      </root>
    </mxGraphModel>
  </diagram>
</mxfile>
